<mxfile host="65bd71144e">
    <diagram id="3M0_dEeIhkfuc-oC-ZfX" name="PÃ¡gina-1">
        <mxGraphModel dx="1129" dy="846" grid="1" gridSize="10" guides="1" tooltips="1" connect="1" arrows="1" fold="1" page="1" pageScale="1" pageWidth="827" pageHeight="1169" math="0" shadow="0">
            <root>
                <mxCell id="0"/>
                <mxCell id="1" parent="0"/>
                <mxCell id="2" value="ReprodutorMusical&lt;div&gt;&lt;br&gt;&lt;/div&gt;" style="swimlane;fontStyle=1;align=center;verticalAlign=top;childLayout=stackLayout;horizontal=1;startSize=26;horizontalStack=0;resizeParent=1;resizeParentMax=0;resizeLast=0;collapsible=1;marginBottom=0;whiteSpace=wrap;html=1;" vertex="1" parent="1">
                    <mxGeometry x="40" y="40" width="160" height="90" as="geometry"/>
                </mxCell>
                <mxCell id="3" value="" style="line;strokeWidth=1;fillColor=none;align=left;verticalAlign=middle;spacingTop=-1;spacingLeft=3;spacingRight=3;rotatable=0;labelPosition=right;points=[];portConstraint=eastwest;strokeColor=inherit;" vertex="1" parent="2">
                    <mxGeometry y="26" width="160" height="8" as="geometry"/>
                </mxCell>
                <mxCell id="4" value="+tocar() : void&lt;div&gt;+pausar() : void&lt;/div&gt;&lt;div&gt;+selecionarMusica() : void&lt;/div&gt;" style="text;strokeColor=none;fillColor=none;align=left;verticalAlign=top;spacingLeft=4;spacingRight=4;overflow=hidden;rotatable=0;points=[[0,0.5],[1,0.5]];portConstraint=eastwest;whiteSpace=wrap;html=1;" vertex="1" parent="2">
                    <mxGeometry y="34" width="160" height="56" as="geometry"/>
                </mxCell>
                <mxCell id="5" value="NavegadorInternet&lt;div&gt;&lt;br&gt;&lt;/div&gt;" style="swimlane;fontStyle=1;align=center;verticalAlign=top;childLayout=stackLayout;horizontal=1;startSize=26;horizontalStack=0;resizeParent=1;resizeParentMax=0;resizeLast=0;collapsible=1;marginBottom=0;whiteSpace=wrap;html=1;" vertex="1" parent="1">
                    <mxGeometry x="640" y="40" width="160" height="90" as="geometry"/>
                </mxCell>
                <mxCell id="6" value="" style="line;strokeWidth=1;fillColor=none;align=left;verticalAlign=middle;spacingTop=-1;spacingLeft=3;spacingRight=3;rotatable=0;labelPosition=right;points=[];portConstraint=eastwest;strokeColor=inherit;" vertex="1" parent="5">
                    <mxGeometry y="26" width="160" height="8" as="geometry"/>
                </mxCell>
                <mxCell id="7" value="+ exibirPagina(): void&lt;div&gt;+ adicionarNovaAba(): void&lt;/div&gt;&lt;div&gt;+ atualizarPagina(): void&lt;/div&gt;" style="text;strokeColor=none;fillColor=none;align=left;verticalAlign=top;spacingLeft=4;spacingRight=4;overflow=hidden;rotatable=0;points=[[0,0.5],[1,0.5]];portConstraint=eastwest;whiteSpace=wrap;html=1;" vertex="1" parent="5">
                    <mxGeometry y="34" width="160" height="56" as="geometry"/>
                </mxCell>
                <mxCell id="8" value="AparelhoTelefonico&lt;div&gt;&lt;br&gt;&lt;/div&gt;" style="swimlane;fontStyle=1;align=center;verticalAlign=top;childLayout=stackLayout;horizontal=1;startSize=26;horizontalStack=0;resizeParent=1;resizeParentMax=0;resizeLast=0;collapsible=1;marginBottom=0;whiteSpace=wrap;html=1;" vertex="1" parent="1">
                    <mxGeometry x="334" y="40" width="160" height="90" as="geometry"/>
                </mxCell>
                <mxCell id="9" value="" style="line;strokeWidth=1;fillColor=none;align=left;verticalAlign=middle;spacingTop=-1;spacingLeft=3;spacingRight=3;rotatable=0;labelPosition=right;points=[];portConstraint=eastwest;strokeColor=inherit;" vertex="1" parent="8">
                    <mxGeometry y="26" width="160" height="8" as="geometry"/>
                </mxCell>
                <mxCell id="10" value="+ ligar(): void&lt;div&gt;+ atender(): void&lt;/div&gt;&lt;div&gt;+ iniciarCorreioVoz(): void&lt;/div&gt;" style="text;strokeColor=none;fillColor=none;align=left;verticalAlign=top;spacingLeft=4;spacingRight=4;overflow=hidden;rotatable=0;points=[[0,0.5],[1,0.5]];portConstraint=eastwest;whiteSpace=wrap;html=1;" vertex="1" parent="8">
                    <mxGeometry y="34" width="160" height="56" as="geometry"/>
                </mxCell>
                <mxCell id="11" value="Iphone" style="swimlane;fontStyle=1;align=center;verticalAlign=top;childLayout=stackLayout;horizontal=1;startSize=26;horizontalStack=0;resizeParent=1;resizeParentMax=0;resizeLast=0;collapsible=1;marginBottom=0;whiteSpace=wrap;html=1;" vertex="1" parent="1">
                    <mxGeometry x="319" y="280" width="190" height="90" as="geometry"/>
                </mxCell>
                <mxCell id="12" value="" style="line;strokeWidth=1;fillColor=none;align=left;verticalAlign=middle;spacingTop=-1;spacingLeft=3;spacingRight=3;rotatable=0;labelPosition=right;points=[];portConstraint=eastwest;strokeColor=inherit;" vertex="1" parent="11">
                    <mxGeometry y="26" width="190" height="8" as="geometry"/>
                </mxCell>
                <mxCell id="13" value="+ reprodutor: ReprodutorMusical&lt;div&gt;+ telefone: AparelhoTelefonico&lt;/div&gt;&lt;div&gt;+ navegador: NavegadorInternet&lt;/div&gt;&lt;div&gt;&lt;br&gt;&lt;/div&gt;" style="text;strokeColor=none;fillColor=none;align=left;verticalAlign=top;spacingLeft=4;spacingRight=4;overflow=hidden;rotatable=0;points=[[0,0.5],[1,0.5]];portConstraint=eastwest;whiteSpace=wrap;html=1;" vertex="1" parent="11">
                    <mxGeometry y="34" width="190" height="56" as="geometry"/>
                </mxCell>
                <mxCell id="17" value="" style="endArrow=diamondThin;endFill=0;endSize=24;html=1;entryX=1;entryY=0;entryDx=0;entryDy=0;exitX=0.488;exitY=1.054;exitDx=0;exitDy=0;exitPerimeter=0;" edge="1" parent="1" source="7" target="11">
                    <mxGeometry width="160" relative="1" as="geometry">
                        <mxPoint x="730" y="120" as="sourcePoint"/>
                        <mxPoint x="490" y="430" as="targetPoint"/>
                    </mxGeometry>
                </mxCell>
                <mxCell id="18" value="" style="endArrow=diamondThin;endFill=0;endSize=24;html=1;" edge="1" parent="1" source="10" target="11">
                    <mxGeometry width="160" relative="1" as="geometry">
                        <mxPoint x="330" y="430" as="sourcePoint"/>
                        <mxPoint x="490" y="430" as="targetPoint"/>
                    </mxGeometry>
                </mxCell>
                <mxCell id="19" value="" style="endArrow=diamondThin;endFill=0;endSize=24;html=1;exitX=0.488;exitY=1;exitDx=0;exitDy=0;exitPerimeter=0;entryX=0;entryY=0;entryDx=0;entryDy=0;" edge="1" parent="1" source="4" target="11">
                    <mxGeometry width="160" relative="1" as="geometry">
                        <mxPoint x="90" y="190" as="sourcePoint"/>
                        <mxPoint x="250" y="190" as="targetPoint"/>
                    </mxGeometry>
                </mxCell>
            </root>
        </mxGraphModel>
    </diagram>
</mxfile>